<?xml version="1.0" standalone="no"?>
<!DOCTYPE svg PUBLIC "-//W3C//DTD SVG 20010904//EN"
 "http://www.w3.org/TR/2001/REC-SVG-20010904/DTD/svg10.dtd">
<svg version="1.0" xmlns="http://www.w3.org/2000/svg"
 width="1095.000000pt" height="640.000000pt" viewBox="0 0 1095.000000 640.000000"
 preserveAspectRatio="xMidYMid meet">
<metadata>
Created by potrace 1.16, written by Peter Selinger 2001-2019
</metadata>
<g transform="translate(0.000000,640.000000) scale(0.100000,-0.100000)"
fill="#000000" stroke="none">
<path d="M4440 6030 c0 -5 -12 -10 -27 -10 -42 -1 -156 -35 -161 -48 -6 -20
-59 -14 -65 7 -3 13 -17 21 -45 26 -23 4 -46 4 -51 1 -19 -12 -151 -10 -163 2
-16 16 -174 16 -235 0 -28 -7 -47 -18 -50 -28 -3 -12 -19 -20 -44 -24 -21 -3
-39 -11 -39 -16 0 -6 -13 -10 -30 -10 -16 0 -30 -3 -30 -7 0 -11 -50 -33 -72
-33 -10 0 -18 -6 -18 -14 0 -15 -30 -26 -72 -26 -15 0 -30 -4 -33 -10 -3 -5
-14 -10 -25 -10 -10 0 -20 -7 -24 -15 -3 -8 -14 -15 -25 -15 -12 0 -21 -9 -25
-25 -4 -16 -13 -25 -26 -25 -13 0 -22 -9 -26 -25 -4 -16 -13 -25 -25 -25 -10
0 -19 -7 -19 -15 0 -8 -9 -15 -20 -15 -15 0 -22 -9 -26 -30 -4 -16 -13 -30
-21 -30 -7 0 -17 -8 -20 -17 -4 -10 -11 -21 -16 -24 -5 -4 -12 -27 -14 -53 -4
-30 -10 -46 -19 -46 -8 0 -14 -6 -14 -13 0 -7 -22 -19 -49 -26 -38 -9 -51 -18
-53 -34 -2 -13 -13 -23 -30 -28 -15 -4 -37 -16 -49 -28 -13 -12 -26 -21 -31
-21 -4 0 -8 -7 -8 -15 0 -8 -7 -15 -15 -15 -8 0 -24 -8 -34 -17 -11 -10 -33
-29 -50 -43 -19 -16 -32 -38 -36 -63 -5 -26 -11 -37 -20 -33 -14 5 -25 -14
-25 -45 0 -11 -7 -22 -15 -25 -13 -5 -15 -48 -14 -310 1 -167 5 -304 9 -304 4
0 10 -48 14 -107 8 -130 14 -163 31 -163 7 0 15 -18 19 -42 4 -24 15 -47 26
-55 11 -8 20 -20 20 -26 0 -7 10 -17 23 -22 12 -6 23 -20 25 -32 2 -13 10 -23
18 -23 7 0 16 -11 20 -25 14 -58 22 -15 25 143 4 167 4 168 31 195 25 25 33
27 113 27 78 0 85 2 85 20 0 11 -7 20 -15 20 -8 0 -15 7 -15 15 0 12 -16 15
-82 15 -86 0 -100 -4 -111 -30 -4 -8 -4 32 -1 90 4 58 8 106 9 108 2 2 19 0
39 -4 30 -5 38 -12 43 -35 5 -24 11 -29 49 -35 24 -3 135 -4 247 -1 198 5 303
19 291 38 -3 6 -11 5 -20 -2 -8 -6 -18 -9 -21 -5 -4 4 -1 11 6 15 9 6 10 11 2
15 -20 13 -11 26 17 25 l27 -1 -25 -8 c-23 -7 -23 -8 -3 -9 36 -2 36 17 -1 41
-19 13 -37 31 -40 41 -2 11 -14 17 -30 17 -15 0 -29 7 -32 15 -4 8 -15 15 -25
15 -10 0 -19 4 -19 10 0 5 -16 12 -36 16 -23 4 -38 13 -41 24 -3 11 -19 21
-41 25 -21 4 -43 11 -49 17 -7 6 -13 7 -13 3 0 -4 -9 4 -20 18 -11 14 -20 32
-20 41 0 9 -8 16 -20 16 -11 0 -20 7 -20 15 0 8 -4 15 -9 15 -5 0 -12 7 -15
16 -5 13 -1 14 26 9 18 -4 38 -14 46 -21 7 -8 29 -14 48 -14 19 0 34 -4 34 -9
0 -5 25 -12 55 -16 35 -4 55 -11 55 -19 0 -9 31 -17 98 -26 53 -7 100 -17 103
-23 4 -5 70 -13 148 -17 78 -4 144 -9 146 -11 1 -2 5 -13 7 -24 2 -15 -3 -21
-25 -23 -15 -2 -25 -8 -22 -13 4 -5 -10 -9 -29 -9 -20 0 -36 -4 -36 -9 0 -4
-20 -14 -45 -21 -32 -9 -45 -18 -45 -31 0 -11 -10 -20 -30 -24 -16 -4 -30 -11
-30 -16 0 -5 -6 -9 -14 -9 -9 0 -15 -15 -18 -45 -3 -44 -2 -45 26 -45 47 0 95
21 98 43 2 11 11 21 22 23 10 1 28 12 40 23 13 12 38 21 64 22 24 2 46 7 48
11 3 4 21 8 40 8 23 0 34 5 34 14 0 10 16 16 53 20 89 9 236 14 242 8 3 -4 18
-7 33 -8 15 -1 35 -2 46 -3 11 0 16 -6 13 -15 -6 -14 -7 -14 158 -36 39 -5 85
-14 104 -19 19 -6 38 -8 44 -4 6 3 7 1 3 -5 -5 -8 4 -12 29 -12 46 0 92 -39
48 -40 -10 -1 0 -7 21 -15 22 -8 42 -14 45 -13 34 3 81 -4 76 -12 -3 -5 -1
-10 6 -10 7 0 21 -8 32 -17 11 -10 17 -12 13 -5 -5 7 -1 12 9 12 11 0 15 -5
11 -15 -4 -10 1 -15 16 -15 17 0 18 -2 8 -15 -11 -13 -7 -15 26 -17 66 -2 69
-3 67 -13 -1 -6 8 -15 20 -22 12 -6 21 -14 20 -17 -9 -20 1 -34 26 -39 27 -6
49 -37 43 -59 -1 -5 4 -8 10 -9 24 -1 66 -64 70 -104 3 -27 9 -40 18 -40 21 0
25 -78 6 -135 -8 -25 -18 -66 -22 -91 -5 -35 -16 -53 -50 -85 -26 -24 -44 -50
-44 -62 0 -12 -4 -22 -10 -22 -5 0 -13 -12 -16 -26 -4 -14 -17 -29 -30 -34
-15 -6 -24 -19 -26 -37 -2 -20 -9 -29 -25 -31 -14 -2 -25 -13 -29 -28 -3 -13
-10 -21 -15 -18 -5 3 -9 1 -9 -4 0 -5 -11 -9 -25 -9 -29 0 -47 -13 -27 -20 15
-6 6 -23 -14 -23 -8 0 -14 9 -14 20 0 21 -24 28 -35 10 -3 -5 -1 -10 5 -10 6
0 8 -4 5 -10 -9 -15 -47 -12 -69 5 -20 15 -20 15 0 15 16 0 17 2 4 10 -8 6
-33 10 -55 9 -48 -3 -85 8 -85 24 0 7 -4 6 -10 -3 -8 -12 -10 -10 -10 10 -1
22 -2 23 -11 7 -5 -9 -8 -21 -4 -26 3 -5 1 -13 -5 -16 -8 -5 -7 -11 1 -21 9
-12 6 -14 -20 -14 -24 0 -31 4 -31 19 0 42 -139 35 -155 -7 -3 -8 3 -16 15
-19 23 -6 27 -23 5 -23 -9 0 -15 -10 -16 -22 0 -13 -3 -18 -5 -11 -4 8 -11 6
-25 -8 -23 -23 -24 -39 -2 -39 15 0 15 -1 0 -18 -10 -10 -17 -29 -18 -43 0
-22 -1 -23 -9 -4 -6 13 -9 -18 -9 -87 -1 -59 -5 -109 -10 -112 -4 -3 -11 -25
-15 -48 -7 -44 -23 -71 -36 -63 -5 3 -12 -14 -15 -38 -6 -38 -12 -47 -41 -61
-19 -9 -38 -26 -43 -38 -5 -13 -11 -22 -15 -20 -3 2 -20 0 -37 -3 -20 -5 -29
-12 -25 -21 3 -9 -6 -15 -32 -19 -48 -8 -123 -45 -130 -65 -10 -26 -26 -37
-65 -44 -21 -4 -37 -13 -37 -20 0 -16 -21 -26 -58 -27 l-27 -1 25 -8 c24 -8
23 -8 -8 -9 -20 -1 -31 3 -27 9 3 6 1 10 -4 10 -6 0 -11 -7 -11 -16 0 -12 -7
-14 -30 -9 -19 4 -30 3 -30 -4 0 -6 -7 -11 -15 -11 -8 0 -15 5 -15 10 0 13
-33 13 -46 0 -5 -5 -8 -30 -6 -55 3 -35 8 -45 21 -43 9 2 15 -3 14 -9 -2 -7 2
-13 7 -13 12 0 13 -47 1 -52 -5 -1 -11 -28 -14 -58 -2 -30 -2 -45 0 -32 2 12
9 22 14 22 5 0 9 -47 9 -105 l0 -105 39 0 39 0 7 -80 c4 -44 11 -80 15 -80 5
0 11 -18 15 -40 4 -23 12 -40 20 -40 15 0 25 -31 25 -84 0 -24 7 -45 18 -55
21 -20 25 -34 27 -91 l2 -45 -4 43 c-2 23 -8 40 -14 37 -5 -4 -9 1 -9 9 0 9
-7 16 -15 16 -15 0 -19 -24 -15 -104 1 -34 -1 -38 -17 -32 -17 6 -17 5 0 -8
23 -18 26 -156 2 -156 -8 0 -15 -4 -15 -10 0 -5 7 -10 15 -10 10 0 15 -10 15
-30 0 -32 -14 -40 -24 -15 -6 17 -36 21 -36 5 0 -15 33 -50 47 -50 6 0 15 -9
18 -20 3 -11 11 -20 16 -20 5 0 9 -7 9 -15 0 -15 6 -24 36 -59 7 -7 13 -21 15
-31 4 -18 52 -39 63 -27 3 3 6 22 6 43 0 21 5 41 10 44 12 8 13 75 1 75 -8 0
-13 24 -27 128 -5 32 -10 42 -25 42 -14 0 -20 10 -25 40 -4 22 -10 40 -15 40
-5 0 -9 11 -9 25 0 32 16 32 24 0 4 -16 13 -25 26 -25 17 0 20 7 20 40 0 33
-3 40 -19 40 -16 0 -20 10 -26 63 -4 34 -12 65 -17 68 -5 3 -12 67 -15 143 -3
75 -10 139 -15 142 -12 7 -10 134 2 134 6 0 11 47 12 118 2 106 2 109 5 30 3
-64 7 -88 18 -92 8 -3 15 -1 15 4 0 6 9 10 20 10 12 0 20 6 19 12 -1 7 -1 61
0 121 l1 107 40 0 40 0 0 -87 c0 -118 9 -165 31 -170 10 -3 20 -12 22 -22 3
-9 5 16 6 56 0 39 6 75 11 78 6 3 10 19 10 36 0 16 2 29 5 29 11 0 45 -35 45
-47 0 -7 11 -15 24 -19 17 -4 26 -14 28 -32 3 -24 7 -27 40 -27 20 0 40 -3 44
-7 4 -5 27 -8 51 -8 32 0 43 -4 43 -15 0 -8 -4 -15 -10 -15 -5 0 -10 -21 -10
-46 0 -31 -5 -51 -16 -58 -8 -7 -18 -31 -21 -54 -3 -24 -11 -42 -18 -42 -8 0
-15 -23 -19 -60 -4 -34 -11 -58 -17 -55 -5 4 -9 -8 -9 -24 0 -17 -4 -31 -9
-31 -5 0 -13 -10 -17 -22 -4 -13 -12 -26 -18 -30 -7 -4 -12 -62 -14 -153 -3
-113 -7 -148 -18 -152 -10 -3 -14 -22 -14 -59 0 -30 -4 -54 -10 -54 -5 0 -12
-17 -16 -38 -4 -20 -15 -44 -26 -53 -10 -9 -18 -29 -18 -44 0 -17 -12 -39 -34
-61 -19 -19 -38 -44 -41 -54 -4 -11 -13 -20 -21 -20 -8 0 -24 -8 -35 -19 -17
-16 -18 -19 -4 -24 8 -4 15 -10 14 -14 -3 -19 2 -34 9 -29 4 2 18 -9 31 -25
27 -34 51 -38 51 -7 0 12 3 19 6 15 3 -3 6 -22 6 -41 0 -20 4 -36 9 -36 5 0 9
-6 9 -14 0 -8 11 -24 25 -37 13 -13 25 -30 25 -36 0 -7 11 -15 25 -19 14 -3
25 -10 25 -15 0 -5 261 -8 627 -7 498 2 627 6 629 16 1 7 0 8 -3 2 -2 -5 -12
-10 -21 -10 -14 0 -14 2 -3 9 17 11 7 41 -14 41 -11 0 -14 7 -11 25 3 14 0 25
-5 25 -5 0 -9 7 -9 16 0 9 -5 12 -12 8 -10 -6 -10 -5 -1 7 10 12 8 18 -7 29
-11 8 -20 22 -20 32 0 10 -4 18 -10 18 -5 0 -10 16 -10 35 0 19 -4 35 -10 35
-5 0 -10 15 -10 34 0 77 -13 156 -26 156 -8 0 -16 19 -20 47 -4 27 -11 51 -15
54 -5 3 -12 40 -15 82 -4 42 -11 74 -15 71 -5 -3 -9 6 -9 20 0 13 -5 26 -11
28 -6 2 -13 25 -16 51 -3 28 -11 47 -18 47 -17 0 -25 23 -25 76 0 24 -4 44
-10 44 -14 0 -13 19 3 34 13 13 148 36 210 36 23 0 37 5 37 13 0 9 2 9 9 -1 4
-8 9 -46 10 -85 2 -119 10 -157 33 -157 14 0 18 -5 14 -15 -3 -8 1 -21 9 -29
17 -16 20 -36 6 -36 -12 0 3 -66 19 -85 8 -10 11 -31 7 -60 -10 -73 20 -122
71 -116 6 1 12 -2 13 -6 1 -4 2 -22 4 -40 4 -42 39 -81 59 -64 12 11 16 7 21
-21 3 -18 3 -60 1 -93 -2 -33 -5 -76 -5 -95 -1 -26 -4 -31 -11 -20 -7 12 -10
8 -11 -15 0 -25 -2 -27 -8 -10 -7 17 -9 16 -16 -10 -5 -17 -9 -34 -9 -40 -1
-17 -47 -60 -54 -49 -4 5 -20 10 -36 11 -18 1 -24 -2 -16 -7 10 -6 8 -9 -6
-13 -16 -4 -16 -5 3 -6 12 0 25 -5 28 -11 4 -6 100 -10 256 -10 l249 0 0 80
c0 64 -3 80 -15 80 -8 0 -17 11 -21 25 -3 14 -10 25 -14 25 -4 0 -11 24 -14
54 -5 39 -11 53 -20 50 -10 -4 -16 13 -22 58 -4 35 -8 69 -7 75 0 7 -3 10 -8
7 -5 -3 -9 2 -9 11 0 10 -6 15 -13 12 -8 -3 -13 4 -14 22 -1 46 -3 52 -12 47
-9 -6 -19 38 -23 101 -2 23 -7 32 -18 30 -10 -1 -16 7 -18 25 -3 29 -16 37
-26 16 -3 -7 -3 -1 0 15 5 19 2 27 -8 27 -7 0 -21 9 -31 20 -19 22 -22 35 -7
25 13 -8 13 28 0 41 -6 6 -12 26 -14 45 -1 19 -7 43 -13 54 -6 11 -8 25 -6 32
2 6 -1 14 -6 18 -6 3 -15 -5 -21 -19 -6 -16 -17 -26 -27 -25 -17 1 -17 2 0 6
9 2 17 11 17 18 0 7 3 22 7 32 7 17 6 17 -11 0 -22 -22 -31 -16 -17 11 9 16 7
19 -9 18 -11 0 -20 4 -20 9 0 6 4 10 9 10 5 0 13 3 17 8 4 4 0 7 -9 7 -8 0
-17 5 -19 11 -2 6 -20 11 -41 11 -20 0 -39 4 -42 8 -3 4 13 7 35 6 28 -1 39 3
36 11 -3 7 1 10 10 6 8 -3 13 -12 10 -19 -3 -7 0 -16 7 -20 7 -4 9 -4 5 1 -4
4 -3 14 2 20 8 9 6 14 -5 19 -8 3 -15 10 -15 16 0 6 5 8 11 5 6 -4 13 2 16 14
3 12 9 21 14 21 5 0 9 9 9 20 0 11 -4 20 -10 20 -6 0 -10 38 -10 95 0 57 4 95
10 95 6 0 10 14 10 30 0 17 -4 30 -10 30 -5 0 -10 9 -10 21 0 11 -7 27 -15 35
-9 10 -15 34 -15 64 0 27 -5 50 -11 52 -6 2 -13 24 -16 50 -5 38 -8 45 -24 41
-11 -3 -19 0 -19 6 0 6 -6 11 -14 11 -16 0 -26 21 -26 55 0 25 -17 35 -61 35
-16 0 -29 5 -29 10 0 6 -7 10 -15 10 -8 0 -15 7 -15 15 0 9 -12 18 -30 22 -16
3 -30 11 -30 18 0 8 -18 16 -40 20 -39 7 -40 7 -40 50 0 50 9 55 107 55 58 0
63 2 69 24 4 19 14 25 52 30 94 12 122 18 122 26 0 5 16 14 35 20 19 6 36 19
39 28 3 10 16 22 28 27 16 7 24 20 26 43 2 17 7 32 13 32 5 0 9 6 9 14 0 7 13
19 29 26 22 9 31 21 36 47 3 19 9 32 12 29 12 -12 33 17 33 44 0 16 6 30 13
32 9 4 12 47 12 173 0 126 -3 169 -12 173 -25 8 -13 44 27 83 22 22 40 48 40
57 0 10 12 22 29 29 33 12 41 8 41 -19 0 -10 7 -18 15 -18 12 0 15 -17 15 -90
0 -73 -3 -90 -15 -90 -12 0 -15 -17 -15 -95 0 -78 3 -95 15 -95 11 0 15 -12
15 -44 0 -30 5 -46 15 -50 8 -3 15 -17 15 -31 0 -14 6 -25 13 -25 8 0 18 -24
26 -60 8 -33 17 -60 21 -60 5 0 11 -14 15 -30 4 -17 12 -30 19 -30 8 0 18 -27
25 -69 10 -54 17 -70 32 -74 12 -3 19 -14 19 -29 0 -24 32 -48 65 -48 9 0 16
-16 21 -45 4 -27 11 -45 19 -45 8 0 17 -9 20 -20 3 -11 10 -20 15 -20 4 0 11
-11 14 -24 6 -24 41 -36 109 -36 15 0 30 -6 33 -14 3 -8 23 -17 45 -21 21 -4
39 -11 39 -16 0 -5 7 -9 15 -9 8 0 15 -4 15 -10 0 -6 62 -10 165 -10 103 0
165 4 165 10 0 6 9 10 20 10 11 0 20 5 20 10 0 6 14 10 30 10 17 0 33 6 36 14
3 8 25 19 50 25 24 6 44 16 44 21 0 6 9 10 20 10 11 0 20 7 20 15 0 9 6 18 14
21 8 3 18 24 21 47 8 43 23 77 40 89 6 4 -19 8 -54 8 -66 0 -125 -15 -149 -37
-24 -23 -202 -10 -202 13 0 8 -1 14 -2 14 -2 1 -30 3 -63 7 -33 3 -61 9 -63
14 -2 5 -14 9 -26 9 -16 0 -26 9 -35 33 -10 24 -23 36 -45 43 -21 6 -32 16
-34 32 -2 12 -10 22 -17 22 -13 0 -35 56 -35 88 0 6 -6 12 -14 12 -9 0 -15 21
-19 72 -4 40 -11 74 -17 76 -5 2 -10 19 -10 38 0 19 -4 34 -10 34 -6 0 -10
102 -10 286 0 187 3 283 10 279 6 -4 10 12 10 39 0 25 5 46 10 46 6 0 10 22
10 49 0 67 10 111 25 111 7 0 16 19 20 46 9 60 14 74 30 74 15 0 25 22 25 56
0 13 5 24 10 24 6 0 10 13 10 29 0 49 12 91 26 91 8 0 15 6 15 13 2 15 3 22
13 75 5 26 13 42 22 42 8 0 14 10 14 25 0 14 5 25 10 25 6 0 10 7 10 16 0 8 6
22 14 29 7 8 17 34 20 60 4 27 12 45 20 45 17 0 26 85 26 236 0 85 3 114 13
114 8 0 9 2 1 8 -6 4 -15 22 -19 40 -3 17 -12 32 -19 32 -9 0 -15 21 -19 62
-3 40 -11 66 -21 74 -9 6 -16 23 -16 38 0 14 -4 26 -10 26 -5 0 -10 7 -10 15
0 8 -6 15 -14 15 -8 0 -17 11 -20 25 -4 16 -13 25 -25 25 -21 0 -31 19 -31 56
0 27 -28 64 -48 64 -7 0 -15 7 -18 15 -4 8 -15 15 -25 15 -10 0 -19 6 -19 13
0 17 -38 48 -69 56 -16 5 -27 16 -29 29 -2 12 -8 22 -13 22 -5 0 -23 13 -40
29 -21 21 -45 31 -80 36 -29 4 -49 12 -49 19 0 24 -245 33 -523 19 -97 -4
-137 -10 -137 -18 0 -13 -121 -33 -254 -42 -59 -4 -83 -10 -97 -24 -11 -11
-26 -19 -34 -19 -8 0 -15 -9 -15 -20 0 -16 -7 -20 -35 -20 l-35 0 -1 55 c-2
77 -3 80 -16 81 -7 1 -17 2 -22 3 -5 0 -13 10 -16 21 -3 11 -13 20 -21 20 -16
0 -48 29 -56 51 -6 17 -90 39 -144 39 -19 0 -34 5 -34 10 0 6 -50 10 -130 10
-80 0 -130 -4 -130 -10z m-26 -4200 c9 0 16 -21 20 -59 8 -71 -2 -141 -20
-141 -7 0 -16 -9 -19 -20 -3 -11 -12 -20 -20 -20 -7 0 -15 -6 -18 -12 -7 -22
-32 7 -46 52 -6 22 -16 40 -21 40 -6 0 -10 7 -10 15 0 8 -4 15 -10 15 -5 0
-10 18 -10 39 0 36 3 40 28 43 16 2 31 12 37 26 5 12 14 22 20 22 6 0 19 10
30 23 l20 22 3 -22 c2 -13 9 -23 16 -23z"/>
<path d="M8110 4780 c0 -16 7 -20 30 -20 25 0 30 -4 30 -25 0 -18 5 -25 20
-25 11 0 20 -7 20 -15 0 -8 9 -15 20 -15 11 0 20 -4 20 -10 0 -5 8 -10 19 -10
13 0 20 -9 25 -30 4 -24 11 -30 31 -30 20 0 25 -5 25 -25 0 -18 5 -25 20 -25
16 0 20 -7 20 -30 0 -16 5 -30 10 -30 6 0 10 -13 10 -29 0 -17 5 -33 10 -36 6
-3 10 -19 10 -36 0 -26 3 -29 34 -29 l33 0 6 -82 c9 -106 9 -292 0 -435 l-6
-113 -34 0 c-31 0 -33 -2 -33 -35 0 -19 -4 -35 -10 -35 -6 0 -10 -30 -10 -70
0 -40 4 -70 10 -70 6 0 10 7 10 15 0 10 10 15 34 15 l35 0 7 80 c5 66 10 80
24 80 14 0 18 13 24 77 8 98 8 404 -1 522 -5 83 -8 91 -25 86 -15 -5 -18 -1
-18 24 0 42 -17 84 -32 75 -7 -4 -8 -3 -4 5 4 6 12 9 17 6 5 -4 9 -2 9 4 0 15
-23 26 -28 13 -2 -7 -8 -10 -13 -7 -5 4 -6 0 -3 -8 3 -8 -1 -14 -10 -14 -10 0
-14 10 -14 31 1 16 -4 32 -10 34 -7 2 -12 15 -12 28 0 13 -4 24 -10 24 -5 0
-10 12 -10 26 0 21 -4 24 -20 19 -14 -5 -20 -2 -20 9 0 10 -9 16 -25 16 -20 0
-25 6 -31 34 -5 31 -10 35 -45 41 -22 4 -39 12 -39 20 0 7 -14 15 -31 19 -54
11 -69 8 -69 -14z"/>
<path d="M7630 4549 c-11 -8 -12 -12 -2 -16 6 -2 12 -16 12 -29 0 -19 5 -24
25 -24 14 0 25 -4 25 -10 0 -5 8 -10 18 -10 12 0 13 -3 5 -8 -10 -7 -10 -14 0
-35 6 -15 15 -27 20 -27 4 0 7 -16 7 -35 0 -28 4 -35 20 -35 17 0 20 -7 20
-52 0 -61 10 -81 33 -72 15 6 17 -7 17 -135 l0 -141 -25 0 c-24 0 -25 -3 -25
-55 0 -48 -2 -55 -20 -55 -16 0 -20 -7 -20 -30 0 -16 -4 -30 -10 -30 -5 0 -10
-9 -10 -20 0 -11 -7 -20 -15 -20 -10 0 -15 -10 -15 -26 0 -22 -4 -25 -21 -21
-13 4 -22 0 -26 -11 -9 -23 -36 -52 -48 -52 -5 0 -3 5 5 11 13 9 13 10 0 6 -8
-2 -16 -17 -18 -35 -2 -19 -10 -32 -20 -35 -9 -3 4 -5 31 -6 46 -1 47 0 47 29
0 25 4 30 25 30 14 0 25 5 25 10 0 6 7 10 15 10 8 0 15 7 15 16 0 20 24 44 44
44 10 0 16 9 16 25 0 20 5 25 24 25 23 0 25 4 31 75 6 64 10 75 26 75 18 0 19
11 19 195 0 188 -1 195 -20 195 -16 0 -20 7 -20 34 0 68 -11 96 -36 96 -20 0
-24 5 -24 30 0 23 -4 30 -20 30 -11 0 -20 7 -20 15 0 8 -4 15 -10 15 -5 0 -10
13 -10 29 0 21 -6 30 -22 35 -33 8 -51 7 -68 -5z"/>
<path d="M7228 4325 c2 -41 8 -75 13 -75 5 0 9 5 9 11 0 6 7 4 15 -5 12 -11
15 -44 15 -155 l0 -141 -24 0 c-22 0 -24 -5 -30 -69 -6 -57 -10 -70 -27 -74
-15 -4 -19 -14 -19 -47 0 -37 2 -41 23 -38 16 2 23 11 25 31 2 15 8 25 13 22
5 -3 6 1 3 9 -4 11 0 16 15 16 14 0 21 6 21 20 0 13 7 20 20 20 16 0 20 7 20
35 0 19 5 35 10 35 6 0 10 26 10 59 0 69 8 100 21 79 5 -8 9 14 9 55 0 53 -3
67 -15 67 -11 0 -15 12 -15 50 0 28 -4 50 -10 50 -5 0 -10 18 -10 40 0 33 -3
40 -20 40 -13 0 -20 7 -20 20 0 15 -7 20 -27 20 l-28 0 3 -75z"/>
<path d="M3819 4383 c-16 -2 -32 -15 -40 -31 -8 -15 -21 -33 -29 -40 -8 -8 -9
-11 -2 -7 6 3 12 1 12 -4 0 -6 -12 -12 -27 -12 l-28 -1 30 -8 c28 -7 28 -8 5
-9 -20 -1 -22 -3 -10 -11 10 -6 11 -10 3 -10 -7 0 -13 -9 -13 -19 0 -29 -11
-51 -25 -51 -15 0 -25 -66 -25 -169 0 -99 5 -115 41 -128 25 -10 29 -9 19 1
-14 18 -15 179 -1 184 6 2 11 12 11 23 0 10 4 19 9 19 4 0 11 15 14 34 6 40
38 76 67 76 11 0 23 7 26 15 4 9 19 15 35 15 16 0 29 5 29 10 0 6 18 10 40 10
25 0 40 -5 40 -12 0 -9 4 -8 10 2 6 10 10 11 10 3 0 -8 15 -13 40 -13 29 0 40
-4 40 -15 0 -8 -7 -15 -15 -15 -8 0 -15 -6 -15 -14 0 -8 -7 -17 -16 -20 -8 -3
-12 -10 -9 -16 3 -5 -1 -10 -9 -10 -9 0 -16 -7 -16 -15 0 -8 -4 -15 -10 -15
-5 0 -10 -4 -10 -8 0 -4 16 -6 35 -4 32 4 35 2 35 -22 0 -16 -5 -26 -15 -26
-8 0 -15 -7 -15 -15 0 -8 -4 -15 -9 -15 -5 0 -11 7 -15 15 -8 22 -36 18 -36
-5 0 -12 7 -20 18 -20 23 0 48 -17 39 -27 -5 -4 -12 -1 -17 6 -5 9 -15 11 -26
6 -13 -5 -15 -9 -6 -12 7 -3 12 -22 12 -44 0 -21 5 -39 10 -39 6 0 20 -11 31
-24 11 -13 26 -23 32 -21 38 10 57 18 57 26 0 5 11 9 24 9 14 0 28 5 31 10 3
6 15 10 26 10 10 0 19 7 19 15 0 10 11 15 35 15 19 0 35 5 35 10 0 6 4 10 9
10 5 0 22 5 38 12 15 6 31 11 36 10 4 -1 7 2 7 7 0 5 20 15 45 22 32 9 45 18
42 29 -2 8 -8 14 -14 13 -6 -1 -16 11 -22 27 -5 17 -16 30 -24 30 -9 0 -17 14
-21 35 -4 20 -11 33 -16 30 -5 -3 -11 4 -15 15 -3 11 -12 20 -18 20 -7 0 -17
10 -22 22 -6 14 -23 25 -45 29 -18 4 -39 14 -46 23 -15 21 -48 21 -40 0 4 -9
2 -13 -5 -8 -6 3 -9 17 -6 30 4 23 -5 29 -40 25 -7 -1 -13 4 -13 12 0 10 -18
16 -61 21 -65 6 -205 6 -250 -1z"/>
<path d="M6850 4260 c0 -5 -11 -10 -25 -10 -16 0 -25 -6 -25 -15 0 -9 9 -15
25 -15 23 0 25 -4 25 -45 0 -33 4 -45 15 -45 11 0 15 -12 15 -45 0 -33 -4 -45
-15 -45 -10 0 -15 -10 -15 -31 0 -23 -4 -30 -14 -26 -10 4 -13 1 -9 -9 3 -8
-1 -14 -11 -14 -9 0 -16 -8 -16 -19 0 -15 8 -18 40 -18 36 0 45 6 41 30 -1 5
3 6 9 2 6 -3 8 -11 5 -16 -4 -5 1 -9 9 -9 11 0 16 9 16 30 0 23 4 30 20 30 19
0 20 7 20 101 0 96 -1 101 -20 96 -17 -4 -20 0 -20 29 0 27 -4 34 -20 34 -11
0 -20 5 -20 10 0 6 -7 10 -15 10 -8 0 -15 -4 -15 -10z"/>
<path d="M6504 4151 c-5 -24 -12 -31 -30 -31 -15 0 -24 -6 -24 -15 0 -9 9 -15
25 -15 20 0 27 -6 32 -30 4 -25 10 -30 34 -30 22 0 29 5 29 19 0 15 10 20 45
25 36 6 45 11 45 27 0 12 -7 19 -20 19 -13 0 -20 7 -20 20 0 25 -18 26 -37 3
-12 -17 -13 -16 -11 7 3 22 -1 25 -30 28 -29 3 -33 0 -38 -27z"/>
<path d="M2950 4055 c0 -8 -8 -15 -17 -15 -39 0 -123 -25 -123 -37 0 -7 -4
-13 -10 -13 -5 0 -10 -7 -10 -15 0 -8 -4 -15 -9 -15 -5 0 -12 -11 -15 -25 -4
-14 -11 -25 -16 -25 -6 0 -10 -9 -10 -20 0 -11 5 -20 10 -20 6 0 10 -9 10 -20
0 -11 -4 -20 -10 -20 -5 0 -10 -4 -10 -10 0 -5 7 -10 16 -10 10 0 14 -6 10
-15 -3 -9 0 -15 9 -15 8 0 15 -7 15 -15 0 -8 -4 -15 -9 -15 -5 0 -12 -7 -15
-16 -7 -18 53 -84 77 -84 9 0 17 -4 19 -8 2 -5 22 -12 45 -16 35 -5 41 -4 37
9 -4 8 -17 18 -30 21 -14 4 -24 14 -24 24 0 10 -6 20 -12 22 -9 3 -13 33 -13
103 0 70 4 100 13 102 6 3 12 16 12 29 0 18 5 24 23 24 12 0 28 9 35 20 13 22
54 26 96 10 21 -8 26 -16 26 -44 0 -19 -5 -38 -12 -42 -7 -4 -8 -3 -4 4 4 7 1
12 -8 12 -9 0 -16 -6 -16 -14 0 -8 -8 -17 -17 -19 -10 -3 -4 -5 12 -4 26 2 30
-2 33 -25 3 -23 -1 -28 -17 -28 -17 0 -21 -6 -21 -32 0 -48 10 -78 26 -78 8 0
14 -9 14 -20 0 -17 7 -20 50 -20 37 0 50 4 50 14 0 8 9 17 19 21 10 3 21 14
23 23 7 25 -2 82 -13 82 -5 0 -9 6 -9 14 0 8 -5 16 -10 18 -6 2 -13 27 -17 56
-5 42 -9 52 -24 52 -11 0 -19 7 -19 15 0 8 -7 15 -15 15 -7 0 -18 7 -23 16 -5
9 -29 17 -64 21 -48 5 -55 8 -51 24 3 11 3 19 -1 19 -3 0 -6 -7 -6 -15z"/>
<path d="M3274 3587 c-5 -7 -13 -20 -16 -29 -5 -11 -14 -15 -27 -11 -16 4 -21
1 -21 -14 0 -17 9 -21 53 -27 114 -13 200 -3 218 26 4 6 2 24 -3 39 l-10 29
-91 0 c-59 -1 -96 -5 -103 -13z"/>
<path d="M3793 3448 c-10 -12 -26 -54 -28 -70 0 -13 -12 -18 -65 -28 -30 -6
-56 -14 -59 -19 -4 -5 -44 -14 -91 -20 -47 -6 -86 -16 -88 -21 -2 -6 -15 -10
-28 -10 -13 0 -24 -4 -24 -10 0 -5 -24 -10 -54 -10 -30 0 -56 -5 -58 -11 -5
-16 -110 -17 -116 -1 -2 6 -10 12 -18 12 -8 0 -14 5 -14 10 0 6 -7 10 -15 10
-8 0 -15 5 -15 10 0 6 -13 10 -30 10 -16 0 -30 -4 -30 -10 0 -5 -6 -10 -14
-10 -30 0 -36 -69 -6 -77 11 -3 20 -9 20 -14 0 -5 20 -9 45 -9 25 0 45 4 45 8
0 5 13 9 29 10 23 0 31 -4 33 -21 2 -12 9 -21 16 -20 6 2 14 -8 18 -22 3 -14
11 -25 16 -25 16 0 38 -28 38 -48 0 -16 9 -21 45 -26 25 -4 45 -11 45 -17 0
-12 117 -12 122 0 2 6 26 12 53 14 28 3 42 3 33 0 -10 -2 -18 -9 -18 -14 0 -5
-6 -9 -14 -9 -8 0 -16 -5 -18 -11 -2 -5 -38 -13 -80 -16 -70 -5 -75 -7 -61
-22 14 -13 39 -16 141 -15 88 0 126 4 131 13 5 7 11 12 15 11 18 -5 66 21 66
35 0 8 9 23 20 32 11 10 20 23 20 30 0 7 9 13 20 13 15 0 20 7 20 25 0 16 10
31 28 42 41 26 53 41 55 63 1 11 5 20 9 20 4 0 8 7 8 15 0 8 6 15 14 15 9 0
16 17 20 45 4 25 11 45 17 45 22 0 7 39 -21 51 -16 8 -31 23 -32 34 -3 17 -12
20 -69 23 -45 2 -69 -1 -76 -10z m-215 -267 c30 0 33 2 17 9 -17 8 -16 9 7 7
15 -2 30 -6 34 -10 4 -4 16 -7 26 -7 28 0 21 -17 -9 -23 -16 -3 -83 -11 -150
-18 -68 -6 -123 -16 -123 -20 0 -14 -18 -10 -40 8 -11 10 -20 25 -20 35 0 16
11 18 93 19 50 1 98 1 105 0 6 -1 12 4 13 11 0 10 2 10 6 1 2 -8 21 -13 41
-12z"/>
<path d="M3676 1200 c-4 -33 -11 -62 -16 -65 -6 -4 -10 -30 -10 -59 0 -29 -3
-81 -6 -115 l-7 -61 -38 0 c-26 0 -39 -5 -39 -13 0 -11 -27 -16 -108 -20 -60
-4 -119 -11 -133 -16 -16 -7 79 -10 299 -10 l322 -1 0 45 c0 60 -21 124 -43
131 -29 9 -57 46 -57 76 0 20 -5 28 -18 28 -23 0 -48 30 -57 69 -4 17 -10 31
-14 31 -4 0 -18 9 -31 20 -13 11 -26 20 -30 20 -4 0 -10 -27 -14 -60z"/>
</g>
</svg>
